<svg width="476" height="976" viewBox="0 0 476 976" fill="none" xmlns="http://www.w3.org/2000/svg">
<path d="M372.994 250.61V2H473.999V250.61H372.994Z" stroke="white" stroke-width="4"/>
<path d="M372.994 612.323V363.713H473.999V612.323H372.994Z" stroke="white" stroke-width="4"/>
<path d="M372.994 973.998V725.388H473.999V973.998H372.994Z" stroke="white" stroke-width="4"/>
<path d="M155.488 307.145V307.146C155.488 321.908 159.057 336.163 165.522 346.768C171.978 357.357 180.991 363.708 190.75 363.708H312.123V612.318H190.75C180.995 612.318 171.986 618.666 165.534 629.25C159.071 639.851 155.504 654.099 155.504 668.854C155.504 683.609 159.071 697.857 165.534 708.458C171.986 719.042 180.995 725.39 190.75 725.39H312.123V974H2V2H312.123V250.61H190.75C180.994 250.61 171.983 256.957 165.528 267.54C159.063 278.14 155.492 292.388 155.488 307.145Z" stroke="white" stroke-width="4"/>
</svg>
